<svg width="22" height="19" viewBox="0 0 22 19" fill="none" xmlns="http://www.w3.org/2000/svg">
<path d="M14.4707 2C16.9423 2 18.9531 4.01081 18.9531 6.48242C18.9531 8.95403 16.9423 10.9648 14.4707 10.9648C11.9991 10.9648 9.98828 8.95403 9.98828 6.48242C9.98828 4.01081 11.9991 2 14.4707 2Z" fill="white"/>
<path d="M8.89371 13.8932C10.1209 12.6471 11.7477 11.9609 13.4746 11.9609H15.4668C17.1936 11.9609 18.8205 12.6471 20.0477 13.8932C21.2689 15.1331 21.9414 16.7698 21.9414 18.502C21.9414 18.777 21.7184 19 21.4434 19H7.49805C7.22299 19 7 18.777 7 18.502C7 16.7698 7.67253 15.1331 8.89371 13.8932Z" fill="white"/>
<path d="M3.37793 10.6729H0.657227V9.45605H3.37793V6.66699H4.6084V9.45605H7.33594V10.6729H4.6084V13.4482H3.37793V10.6729Z" fill="white"/>
</svg>
