<svg width="27" height="17" viewBox="0 0 27 17" fill="none" xmlns="http://www.w3.org/2000/svg">
<path d="M9.87772 16.9988C9.40399 16.9988 8.99405 16.7879 8.89794 16.3244L7.57031 9.96859L6.69599 11.4774C6.51654 11.7827 6.18824 11.9987 5.83529 11.9987H1.00019C0.448214 11.9987 0 11.5505 0 11.0003C0 10.4474 0.448214 9.99836 1.00019 9.99836H5.26375L7.16462 6.78602C7.37469 6.43136 7.77783 6.2383 8.18947 6.30804C8.59686 6.37608 8.9209 6.68736 9.00425 7.09135L9.80797 10.9747L11.6408 0.806149C11.7267 0.329869 12.1409 -0.000976562 12.6257 -0.000976562C12.6265 -0.000976562 12.6291 -0.000976562 12.6299 -0.000976562C13.1156 -0.000976562 13.5298 0.335822 13.6114 0.813803L15.5676 12.2284L16.1969 10.6337C16.3466 10.251 16.7157 9.99666 17.1265 9.99666H25.9998C26.5518 9.99666 27 10.444 27 10.9977C27 11.5488 26.5526 11.9979 25.9998 11.9979H17.8052L16.1127 16.2751C15.9494 16.6918 15.5327 16.9444 15.0794 16.9019C14.6354 16.8542 14.274 16.5175 14.1974 16.0752L12.6019 6.74945L10.8617 16.2963C10.7767 16.7683 10.3693 16.9971 9.89047 16.9971C9.88622 16.9988 9.88197 16.9988 9.87772 16.9988Z" fill="#3CBEEF"/>
</svg>
